<svg width="118" height="60" viewBox="0 0 118 60" fill="none" xmlns="http://www.w3.org/2000/svg">
<g id="Frame 1171276649">
<g id="Group">
<g id="Clip path group">
<mask id="mask0_35_164" style="mask-type:luminance" maskUnits="userSpaceOnUse" x="0" y="10" width="118" height="39">
<g id="SVGID_00000181779728740977227540000018431333073846209420_">
<path id="Vector" d="M118 10H0V48.5814H118V10Z" fill="white"/>
</g>
</mask>
<g mask="url(#mask0_35_164)">
<g id="Group_2">
<path id="Vector_2" d="M3.46103 25.9559C6.8406 19.6553 12.704 12.7818 19.626 10.4907C21.0511 10.1224 22.9241 9.75421 24.1864 10.6952C25.2857 11.5135 25.4486 12.9455 25.2043 14.2547C24.8786 15.7685 23.8199 17.6914 22.1098 17.9369C21.784 17.9369 21.5397 17.8142 21.3361 17.6096C20.8882 17.1595 20.9289 16.5458 21.0104 15.9321C21.2954 14.7457 22.3948 13.4364 23.6977 13.2728C23.9013 13.15 23.8199 12.8636 23.7792 12.6591C23.6163 12.3727 23.4127 12.1681 23.087 12.1272C21.7026 11.9635 20.6439 12.8227 19.5853 13.5592C15.5542 16.8322 12.6225 21.0054 10.1795 25.1786C8.18429 28.9426 6.47414 32.7885 5.94481 37.2071C5.70051 40.3984 6.71845 43.5078 9.52797 45.0216C12.5818 46.6581 16.5314 45.5535 19.5853 44.6943L22.3948 43.8351L27.8102 42.2395C32.9407 40.7257 39.3334 40.3984 44.3416 42.4031C47.3547 43.6715 50.49 45.3898 52.4445 48.3765C52.4445 48.4583 52.4445 48.5402 52.363 48.5402C48.0877 47.3537 42.5093 46.2081 38.2747 48.2538L38.0711 48.2128C36.7681 46.1263 34.6101 44.9807 32.3706 44.5306C25.1636 43.8351 19.2595 47.2718 12.5004 48.0901C9.08008 48.4174 5.37476 48.2947 3.01314 45.6762C-0.773613 41.8713 -0.325719 35.2024 1.46586 30.6201C1.91376 29.0654 2.64668 27.5106 3.46103 25.9559Z" fill="#ED1639"/>
<path id="Vector_3" d="M13.3963 28.2063C15.1879 24.8923 17.916 20.8828 21.7028 19.6554C22.7207 19.4099 23.8201 19.5327 24.5937 20.1873C26.2224 21.8238 25.5709 24.6059 25.0416 26.5289C25.0416 26.6516 25.123 26.7743 25.2452 26.7743C26.711 26.7334 27.8511 26.0379 28.9098 25.056C31.1493 22.5193 33.5923 19.2053 37.2162 19.6145C37.9084 19.7372 38.5599 20.1054 38.9264 20.7601C39.8629 22.6012 38.9264 24.6468 37.6641 26.0788C37.1755 26.5289 36.5647 26.8971 35.8725 26.6925C35.5875 26.6107 35.3432 26.3243 35.2618 26.0379C35.0175 24.7287 35.7504 23.5422 36.809 22.8466C37.0941 22.5602 37.9898 22.7648 37.7455 22.0693C37.5419 21.7829 37.2976 21.7829 36.9719 21.7829C35.1803 22.5193 34.0402 24.3604 32.9816 25.8742C31.6786 27.9199 30.6199 30.0883 29.9277 32.3795C29.7241 33.1977 29.5206 34.3024 29.9685 35.0388C30.3349 35.5298 30.905 35.7344 31.5157 35.5707C33.2666 34.8752 34.8139 33.4432 36.1575 31.9703C39.2521 28.2472 40.8808 23.6649 44.9933 20.6373C46.2555 19.7372 48.0878 19.0826 49.6351 19.9009C49.8794 19.9827 50.083 20.31 50.4088 20.1873C50.6531 19.9418 50.8159 19.4099 51.3453 19.5327C52.4854 19.5327 53.7883 19.4917 54.9691 19.6145L55.0506 19.7372L54.7248 20.5146L48.3321 33.566C48.2507 33.6887 48.2507 33.8933 48.2914 34.0569C48.4136 34.2615 48.6172 34.2206 48.8208 34.1797C49.7573 33.6478 50.4495 32.6659 51.101 31.8476C51.671 31.0702 52.1596 30.252 52.5668 29.3928C52.7297 29.1473 52.9333 28.82 53.2997 28.8609C53.6662 28.9018 54.1141 28.7382 54.3584 29.0246C53.9512 30.1292 53.2997 31.1112 52.7297 32.134C50.9788 34.8343 48.7393 37.9437 45.5226 38.762C44.9933 38.8029 44.3418 38.8847 43.9346 38.4756C43.3239 37.9846 43.2831 37.2482 43.1203 36.5936C43.0388 36.5117 42.9574 36.5117 42.876 36.5117C41.5323 37.7391 40.1072 38.9665 38.1934 38.7211C37.5827 38.5983 37.0533 38.1483 36.7683 37.5755C36.2797 36.6345 36.524 35.3662 36.4833 34.3024C36.4426 34.1797 36.2797 34.2206 36.239 34.2615C34.1624 36.3072 31.9229 38.1892 29.1541 38.6801C27.8918 38.8438 26.7517 38.4347 25.8967 37.5346C23.8201 34.8343 25.4488 31.2339 26.5482 28.6154C26.5889 28.4927 26.5889 28.329 26.426 28.2881C25.6931 28.329 24.9602 28.4518 24.2272 28.5745L23.9829 28.8609C22.3135 31.9703 20.4812 35.2843 17.4681 37.6164C16.2059 38.5165 14.3736 39.1302 12.9077 38.3119C11.4012 37.2482 11.2383 35.3662 11.4419 33.6478C11.8083 31.8067 12.5413 30.0065 13.3963 28.2063ZM18.1603 28.0836C17.2645 29.8838 16.3687 31.6839 16.3687 33.7705C16.4502 34.1797 16.6945 34.6297 17.1424 34.7115C17.5903 34.8343 17.9974 34.5888 18.3639 34.3433C20.074 32.9113 21.2549 30.9066 22.2321 28.9837C22.3135 28.7791 22.4357 28.5745 22.3542 28.37C21.3363 27.9608 20.3183 27.2653 19.5447 26.3652L19.3818 26.3243C19.219 26.3652 19.1783 26.5289 19.0561 26.6107L18.1603 28.0836ZM20.807 24.4423C20.8477 25.3833 21.7435 26.2015 22.5578 26.5289C22.7614 26.6107 23.0872 26.7334 23.25 26.4879C23.5758 25.8742 23.7386 25.2196 23.9015 24.565C24.0644 23.7058 24.1865 22.5602 23.3722 21.9875C23.0872 21.8238 22.68 21.8238 22.395 21.9465C21.4584 22.4375 20.807 23.3785 20.807 24.4423ZM41.9395 31.7249C41.6952 32.5022 41.3287 33.3614 41.573 34.2206C41.6544 34.3842 41.8173 34.507 42.0209 34.5479C42.7131 34.5479 43.2017 33.9342 43.6496 33.4432C45.6855 30.5793 47.2735 27.5108 48.6986 24.3604C48.9429 23.7058 49.3094 23.0921 49.3094 22.3557C49.3094 22.192 49.1465 22.0693 49.0243 22.0284C48.6986 21.9056 48.4136 22.1102 48.1693 22.2329C45.4005 24.3604 43.8939 27.4289 42.5502 30.3338L41.9395 31.7249Z" fill="#ED1639"/>
<path id="Vector_4" d="M55.254 23.7057C55.8647 22.4783 56.3941 21.21 57.1677 20.0644C57.4934 19.7371 57.9821 19.7371 58.3892 19.6962L61.4431 19.7371L61.5652 19.8598C61.0359 21.0872 60.4658 22.3146 59.8551 23.5011C59.6922 23.8284 59.3665 24.1148 59 24.1557C57.7377 24.1966 56.4348 24.2376 55.254 24.1557C55.1318 23.9921 55.2133 23.8284 55.254 23.7057Z" fill="#ED1639"/>
<path id="Vector_5" d="M58.3502 29.9654C60.4675 25.5058 63.0735 21.2508 66.6973 17.4868C70.2398 13.9273 74.0672 11.0634 78.7091 10.2042C79.9713 10.0405 81.3964 10.1224 82.3329 10.9816C82.5365 11.1452 82.7401 11.3089 82.9844 11.1861C86.3233 9.83598 90.9244 9.38593 94.2632 11.0634C96.177 12.0044 98.0093 13.2318 99.8823 14.3774C100.127 14.5001 100.004 14.7456 99.8823 14.9092C98.8236 16.0957 97.9278 17.3231 96.9913 18.5505C96.8692 18.6733 96.7063 18.6324 96.5842 18.5505L91.698 15.1547C89.4178 13.6 86.7712 12.4954 83.7988 12.9863C83.473 13.15 83.6359 13.5591 83.5952 13.8864C83.6766 16.9549 82.5772 19.6143 81.1114 22.0691C79.9306 23.7875 78.5869 25.5467 76.5917 26.1195C75.7367 26.3241 74.8816 26.0377 74.3523 25.3422C72.8864 23.1328 74.1894 20.3916 75.2481 18.4278C76.4696 16.2594 78.3833 14.2546 80.4192 12.6999C80.4599 12.6181 80.5414 12.5363 80.5006 12.4544C80.2971 12.2499 79.9713 12.3726 79.6863 12.4135C76.3474 13.5182 73.7008 16.464 71.2577 19.287C66.8602 24.6876 63.5621 30.5791 61.6483 37.0434C61.0783 39.4573 60.2639 43.1804 62.7477 44.8988C64.9058 46.0853 66.9824 44.5715 68.6111 43.1804C71.0948 40.6438 72.7643 37.7389 73.4158 34.425C73.5379 33.443 73.7822 32.0929 72.8864 31.3974C72.0721 31.0291 71.4206 31.7247 70.8505 32.2565C69.5883 33.7703 69.059 35.6114 68.8147 37.5753C68.2446 38.0253 67.5931 38.3526 66.9824 38.8027C65.8423 39.58 64.7429 40.6438 63.8471 41.6666C63.7249 41.7075 63.7249 41.5848 63.6842 41.503C63.5621 37.8617 64.865 34.7523 66.8195 31.9701C68.4075 30.129 70.4434 28.5334 72.8864 29.1471C73.9451 29.4335 74.678 30.5791 74.8816 31.6019C75.2888 34.9977 73.8637 37.9844 72.3164 40.7665C69.8326 44.6533 65.9237 48.6219 60.9561 48.131C59.0424 48.0082 57.2915 46.699 56.4772 44.9397C54.6042 41.1757 55.9071 36.3888 57.1694 32.7475L58.3502 29.9654ZM75.2073 23.5011C75.2481 23.9102 75.4109 24.3603 75.8588 24.5239C76.7139 24.7694 77.3654 24.1557 77.9761 23.6647C80.2156 21.2917 81.6 18.5096 81.9665 15.3184C81.9665 14.8683 82.1294 14.2546 81.8443 13.8455C81.6407 13.8046 81.4372 13.8864 81.315 14.0091C79.8084 15.032 78.3833 16.5049 77.3247 18.0187C76.266 19.6552 75.2481 21.3736 75.2073 23.5011Z" fill="#ED1639"/>
<path id="Vector_6" d="M78.3407 34.0975C80.1323 31.7246 82.5346 29.1061 85.5478 28.9015C86.3214 28.9015 86.9729 29.2288 87.4615 29.8835C88.7645 31.8064 87.6651 34.2612 87.1765 36.1841C87.1357 36.3478 87.2579 36.4705 87.3801 36.5114C87.9908 36.5933 88.7237 36.5114 89.2531 36.225L89.4974 35.9386C91.6554 29.7198 94.9128 23.951 98.7403 18.4277C101.143 15.2364 104.196 11.9634 107.78 10.4087C108.635 10.1223 109.856 9.75405 110.63 10.3677C111.526 11.1042 111.281 12.3725 111.037 13.3953C110.956 14.2545 109.978 14.3773 109.327 14.5818C109.286 14.5818 109.245 14.5818 109.245 14.5409C109.245 13.9681 109.571 13.4772 109.653 12.9453C109.693 12.6589 109.734 12.4134 109.612 12.127C109.449 11.8406 109.123 11.9225 108.879 12.0043C107.657 12.5771 106.721 13.6817 105.784 14.7046C102.323 18.7141 99.8397 23.1737 97.5595 27.6741C96.8266 29.2288 96.0122 30.7836 95.4014 32.4201C95.4014 32.5019 95.4014 32.5837 95.4829 32.6247C96.0122 32.6247 96.338 32.0519 96.7451 31.7655C99.799 28.9834 102.242 25.833 104.522 22.6009C105.011 22.3554 105.581 22.3554 106.11 22.3145L106.232 22.3554C106.192 22.8054 105.825 23.1327 105.622 23.5419C103.097 27.2241 100.206 30.7426 96.7044 33.9339L94.1799 36.0205C93.6506 36.4705 93.6099 37.207 93.3656 37.8207C92.8769 39.4163 92.3883 41.0937 92.3069 42.853C92.3069 43.1394 92.4291 43.4258 92.6734 43.5895C93.3248 43.8759 93.8949 43.2622 94.3428 42.8121C97.7631 38.8435 99.2696 33.9339 103.464 30.3744C104.848 29.2698 106.64 28.3697 108.431 29.1879C108.757 29.3107 108.96 29.7198 109.368 29.5152C109.653 29.3107 109.653 28.9015 110.019 28.9425C111.241 28.9425 112.544 28.9015 113.724 28.9834C113.847 29.0652 113.765 29.2288 113.724 29.3516L112.869 31.07L107.617 41.7074C107.372 42.1984 107.047 42.6894 107.087 43.2622C107.169 43.5076 107.413 43.5076 107.617 43.4667C108.594 42.9349 109.327 42.0348 109.978 41.0937C110.63 40.1936 111.118 39.2526 111.77 38.3116C112.096 38.148 112.544 38.2298 112.91 38.2707C113.114 38.4753 112.829 38.7208 112.788 38.9662C111.241 42.1575 109.083 45.6761 105.744 47.4353C104.97 47.8445 103.871 48.1718 103.016 47.7217C102.323 47.2308 102.405 46.3716 102.079 45.717C101.998 45.6351 101.876 45.6351 101.794 45.676C100.41 46.9444 98.9032 48.3354 96.9487 47.8035C95.7272 47.2308 95.605 45.8397 95.5236 44.6123C95.4422 44.5714 95.4829 44.4896 95.4014 44.4077L95.2386 44.4896C93.8949 46.1261 92.144 48.1718 89.8638 47.9672C89.0088 47.8854 88.2351 47.0671 87.9501 46.2898C87.1357 43.7531 87.9908 40.9301 88.5609 38.4753C88.5609 38.3525 88.398 38.1889 88.2758 38.1889L86.3621 38.2298L86.0364 38.598C84.6112 41.3801 83.064 44.0804 80.6209 46.4125C79.3587 47.5581 77.7707 48.4991 76.0198 47.9672C74.554 47.3535 74.1875 45.7579 74.1875 44.2441C74.5947 40.3982 76.2641 37.1661 78.3407 34.0975ZM78.8293 42.6075C78.87 43.1394 79.1143 43.6713 79.6844 43.8759C80.0509 43.9986 80.4173 43.8349 80.7431 43.6713C82.5346 42.3211 83.5933 40.2755 84.5705 38.3935C84.652 38.1889 84.7334 37.9025 84.4891 37.7798C83.5526 37.2888 82.6568 36.5524 81.9239 35.7341C81.8424 35.6523 81.6388 35.6113 81.5574 35.6932C80.8652 36.5933 80.458 37.6161 79.9694 38.598C79.4401 39.8663 78.87 41.1347 78.8293 42.6075ZM83.349 33.8521C83.3897 34.7931 84.1633 35.6932 85.0591 36.0205C85.222 36.1023 85.5477 36.1432 85.6699 35.9386C86.1992 34.7112 86.6878 33.3202 86.4435 31.9291C86.3214 31.6018 86.0364 31.2745 85.7106 31.1518C85.3849 31.07 85.0184 31.1518 84.7334 31.3154C83.8376 31.8473 83.3897 32.8292 83.349 33.8521ZM100.532 42.1984C100.491 42.6485 100.369 43.2212 100.735 43.5486C100.939 43.7531 101.224 43.7531 101.468 43.6713C102.405 43.1803 102.975 42.1984 103.545 41.3801C105.418 38.4344 106.802 35.284 108.105 32.0928C108.146 31.8064 108.228 31.4382 107.983 31.2336C107.21 30.8654 106.64 31.7246 106.069 32.1337C103.586 34.6294 102.283 37.6161 101.02 40.6437L100.532 42.1984Z" fill="#ED1639"/>
<path id="Vector_7" d="M104.196 18.8365L105.865 16.6681L106.109 16.4635C110.914 16.3817 114.66 13.5178 118.04 10.1219C118.04 10.572 117.836 10.9811 117.673 11.3903C115.474 16.6272 110.1 21.2095 104.277 21.2913L102.893 21.2504C102.648 21.1686 102.811 20.9231 102.893 20.8004L104.196 18.8365Z" fill="#ED1639"/>
<path id="Vector_8" d="M110.223 46.4945C110.223 45.8399 110.711 45.3489 111.363 45.3489C111.974 45.3489 112.462 45.8399 112.462 46.4945C112.462 47.1491 111.974 47.6401 111.363 47.6401C110.711 47.6401 110.223 47.1491 110.223 46.4945ZM111.363 47.8856C112.096 47.8856 112.747 47.3128 112.747 46.4945C112.747 45.7172 112.096 45.1035 111.363 45.1035C110.589 45.1035 109.978 45.6762 109.978 46.4945C109.938 47.2719 110.589 47.8856 111.363 47.8856ZM111.078 46.6173H111.363L111.77 47.3128H112.055L111.607 46.6173C111.851 46.5763 112.014 46.4536 112.014 46.1672C112.014 45.8399 111.811 45.7172 111.444 45.7172H110.833V47.3128H111.078V46.6173ZM111.078 46.4127V45.9217H111.403C111.566 45.9217 111.77 45.9626 111.77 46.1672C111.77 46.4127 111.607 46.4127 111.363 46.4127H111.078Z" fill="#ED1639"/>
</g>
</g>
</g>
</g>
</g>
</svg>
