<svg width="155" height="16" viewBox="0 0 155 16" fill="none" xmlns="http://www.w3.org/2000/svg">
<g id="Tideline_ Impact Investing Consulting - Tideline-1 1" clip-path="url(#clip0_35_346)">
<g id="Layer_2_1_">
<g id="Layer_1-2">
<path id="Vector" d="M14.5915 0.754717C17.8581 0.754717 18.2045 0.553459 18.9964 0.150943C19.0954 0.100629 19.4914 0.251572 19.4914 0.654088C19.4419 1.76101 19.5903 3.62264 19.5903 4.02516C19.5903 4.37736 19.2934 4.72956 18.9469 4.77987C18.6995 4.77987 18.551 4.62893 18.353 4.02516C17.8581 2.66667 17.4126 2.36478 16.7197 2.21384C15.7299 2.06289 14.74 2.06289 13.7501 2.21384C13.6017 2.26415 13.5027 2.41509 13.5027 2.61635C13.4532 3.06918 13.4532 6.74214 13.4532 10.0126C13.4037 11.0189 13.4532 12.0252 13.6017 13.0314C13.7007 13.7358 13.9481 13.9874 15.136 14.3396C15.7794 14.4906 16.0268 14.6415 16.0268 14.9434C16.0268 15.3459 15.4329 15.4465 15.037 15.4465C13.7007 15.4465 13.1067 15.2956 11.6219 15.2956C10.7806 15.2956 8.70185 15.4969 7.90996 15.4969C7.36553 15.4969 7.01908 15.2956 7.01908 14.9937C7.01908 14.6918 7.41503 14.4906 7.86047 14.3899C9.49374 13.9874 9.59273 13.434 9.69171 12.1258C9.84019 9.55975 9.93918 6.49057 9.93918 2.7673C9.93918 2.56604 9.88968 2.26415 9.74121 2.26415C8.75134 2.11321 7.76148 2.11321 6.77162 2.21384C6.22719 2.36478 5.83125 2.66667 5.18784 3.77359C4.84138 4.47799 4.6929 4.62893 4.49493 4.62893C4.19797 4.67925 4 4.27673 4 3.92453C4 3.57233 4.34645 1.15723 4.44544 0.45283C4.44544 0.201258 4.64341 0 4.94037 0C5.18784 0 5.48479 0.301887 5.63327 0.402516C6.12821 0.654088 6.72212 0.805031 9.44425 0.805031H14.5915V0.754717Z" fill="#052955"/>
<path id="Vector_2" d="M29.4391 0.704619C29.7361 0.704619 31.8148 0.805248 32.7057 0.805248C33.5965 0.805248 35.4773 0.654304 36.2692 0.654304C36.5661 0.60399 36.8631 0.805248 36.8631 1.00651C36.8631 1.30839 36.3682 1.61028 36.0217 1.71091C34.6359 2.01279 34.6359 2.31468 34.5369 3.4216C34.4379 4.27695 34.4379 6.59141 34.4379 8.70462C34.4379 9.86185 34.4379 11.2707 34.4874 11.9751C34.5369 13.8367 34.5864 14.1386 36.0217 14.4405C36.5166 14.5914 36.7641 14.843 36.7641 15.1449C36.7641 15.4468 36.4177 15.5474 35.9227 15.5474C34.7844 15.5474 34.1905 15.4468 32.9531 15.4468C32.0128 15.4468 29.7361 15.648 29.1422 15.648C28.6967 15.648 28.3008 15.4971 28.3008 15.2455C28.3008 14.9939 28.6967 14.6417 29.0927 14.4908C30.4785 14.0883 30.6765 13.7361 30.8249 12.3776C30.8744 11.7738 30.8744 10.4656 30.8744 9.35871C30.8744 6.03795 30.9239 4.22663 30.7754 3.47191C30.8249 2.66688 30.2805 1.96248 29.4886 1.86185C28.8947 1.71091 28.5977 1.35871 28.5977 1.05682C28.6472 0.754933 28.9442 0.704619 29.4391 0.704619Z" fill="#052955"/>
<path id="Vector_3" d="M58.9864 14.0883C57.8976 14.843 55.9673 15.5977 53.1462 15.5977C51.0675 15.5977 48.4444 15.3461 47.4545 15.3461C46.8606 15.3461 46.3657 15.3964 45.9202 15.3964C45.3758 15.3964 44.8809 15.1449 44.8809 14.8933C44.8809 14.6417 45.2768 14.3901 45.8212 14.3398C47.504 14.0379 47.6525 13.3839 47.7515 12.4782C47.8504 11.6732 47.8999 10.8681 47.8504 10.0631C47.8504 8.90587 47.801 5.03166 47.7515 3.37128C47.702 2.46562 47.4545 2.11342 45.9697 1.86184C45.5738 1.81153 45.3263 1.55996 45.3263 1.3587C45.3263 1.05681 45.8212 0.855555 46.3657 0.855555H48.2959C49.6322 0.855555 51.8099 0.654297 53.0472 0.654297C55.2249 0.654297 57.6006 1.05681 59.2339 2.16373C61.1146 3.42159 62.253 5.58511 62.2035 7.89958C62.253 10.365 61.0651 12.7298 58.9864 14.0883ZM56.5117 3.42159C55.6209 2.36499 54.3341 1.7109 52.9977 1.66059C52.6018 1.7109 52.2058 1.81153 51.8594 2.01279C51.7109 2.16373 51.6119 2.31467 51.5624 2.51593C51.5129 3.11971 51.4634 3.52222 51.4634 7.94989C51.4634 9.76122 51.5129 11.17 51.5129 12.0254C51.5129 12.6291 51.7109 13.1826 52.0574 13.6354C52.5523 14.0883 53.1957 14.3901 53.8391 14.4908C54.631 14.4405 55.3734 14.1889 56.0663 13.7864C57.1552 13.1323 58.244 10.8681 58.244 8.15115C58.2935 6.44046 57.6996 4.72977 56.5117 3.42159Z" fill="#052955"/>
<path id="Vector_4" d="M77.1006 7.34611C78.3874 7.34611 78.5854 7.04422 79.0803 5.9373C79.2288 5.5851 79.4763 5.2329 79.7733 5.2329C80.0702 5.2329 80.0702 5.5851 80.0702 6.18887C80.0702 6.39013 80.0207 7.04422 80.0207 7.79894C80.0207 8.75491 80.0702 9.10711 80.0702 9.81152C80.0702 10.5159 79.8227 10.6669 79.5753 10.6669C79.3278 10.6669 79.0803 10.365 78.9319 9.91215C78.6844 9.20774 78.5854 8.85554 78.2885 8.75491C77.4471 8.60397 76.6057 8.60397 75.7643 8.65428C75.6158 8.65428 75.5168 8.90586 75.4673 9.10711C75.3684 10.4656 75.3684 11.8241 75.5168 13.1826C75.6158 13.4845 75.7643 13.7864 76.0118 13.9373C76.6552 14.1386 77.3481 14.2392 78.041 14.2392C78.6349 14.2392 79.1793 14.1889 79.7238 14.0882C80.7631 13.7864 81.555 12.9813 82.2479 11.8744C82.4459 11.5222 82.5944 11.2706 82.8418 11.2706C83.1883 11.2706 83.2378 11.8241 83.2378 12.126C83.1388 13.1826 82.8418 14.1889 82.3964 15.1448C82.1984 15.3964 81.9015 15.5474 81.555 15.5474C79.8722 15.5474 77.8925 15.3964 73.5866 15.3964C72.5473 15.3964 70.815 15.5474 70.0726 15.5474C69.3302 15.5474 68.8848 15.3461 68.8848 15.0442C68.8848 14.7423 69.4292 14.4908 69.8251 14.3901C71.3099 14.0379 71.5079 13.736 71.6564 12.4279C71.7059 11.3713 71.7554 9.66057 71.7554 7.59768C71.7554 6.13856 71.7554 4.27692 71.7059 3.11969C71.6564 2.4656 71.5079 2.1134 70.3696 1.7612C69.9736 1.66057 69.5282 1.45931 69.5282 1.0568C69.5282 0.905855 69.7261 0.654283 70.419 0.654283C71.013 0.654283 72.3988 0.805226 73.8341 0.805226C78.9814 0.805226 80.4167 0.855541 81.2086 0.654283C81.3075 0.603968 81.7035 0.754912 81.7035 0.95617C81.753 1.81152 81.852 2.71718 82.0004 3.57252C82.0499 4.22661 81.753 4.62913 81.5055 4.62913C81.2581 4.62913 81.0106 4.32724 80.7631 3.67315C80.4662 2.61655 79.4763 1.96246 78.3874 1.96246C77.4966 1.91214 76.6057 1.86183 75.7148 1.91214C75.6158 1.91214 75.4674 2.16372 75.4179 2.31466C75.3684 2.81781 75.3189 5.98762 75.3684 6.79265C75.3684 6.89328 75.5168 7.14485 75.6653 7.19516C76.0118 7.29579 76.6552 7.34611 77.1006 7.34611Z" fill="#052955"/>
<path id="Vector_5" d="M92.7908 0.704611C93.1867 0.704611 94.2756 0.80524 95.6614 0.80524C96.7502 0.80524 98.631 0.704611 99.3734 0.654297C99.6208 0.654297 100.066 0.80524 100.066 1.05681C100.066 1.30838 99.9673 1.61027 99.1754 1.7109C98.532 1.76122 97.9875 2.26436 97.8886 2.91845C97.7896 3.97505 97.6906 8.60398 97.6906 10.7172C97.6906 11.4719 97.7401 12.5285 97.7896 13.2329C97.8886 13.6857 98.235 14.0379 98.631 14.1386C99.3734 14.2392 100.116 14.2895 100.809 14.2895C101.502 14.3398 102.145 14.0883 102.64 13.5851C103.135 13.082 103.63 12.5285 104.075 11.9751C104.471 11.321 104.768 11.0694 105.016 11.0694C105.263 11.0694 105.362 11.6732 105.164 12.1763C104.768 13.1323 104.422 14.0883 104.125 15.0442C104.026 15.2958 103.877 15.4468 103.63 15.5474C102.937 15.5977 102.244 15.648 101.551 15.5977C99.7198 15.5977 98.235 15.3964 95.9088 15.3964C94.2756 15.3964 93.0877 15.5474 92.2958 15.5474C91.6524 15.5474 91.3555 15.2958 91.3555 15.0442C91.3555 14.843 91.6029 14.5411 92.3453 14.3901C93.5827 14.1889 93.8301 13.7361 93.9786 12.8807C94.1271 11.17 94.1271 9.45933 94.1271 7.74864C94.1271 6.54109 94.1766 4.52851 94.1271 3.27065C94.0776 2.31467 93.8796 2.01279 92.8403 1.76122C92.0979 1.61027 91.8999 1.3587 91.8999 1.10713C91.8999 0.855555 92.0979 0.704611 92.7908 0.704611Z" fill="#052955"/>
<path id="Vector_6" d="M114.617 0.704619C114.914 0.704619 116.993 0.805248 117.883 0.805248C118.774 0.805248 120.655 0.654304 121.447 0.654304C121.744 0.60399 122.041 0.805248 122.041 1.00651C122.041 1.30839 121.546 1.61028 121.199 1.71091C119.814 2.01279 119.814 2.31468 119.715 3.4216C119.616 4.27695 119.616 6.59141 119.616 8.70462C119.616 9.86185 119.616 11.2707 119.665 11.9751C119.715 13.8367 119.764 14.1386 121.199 14.4405C121.694 14.5914 121.942 14.843 121.942 15.1449C121.942 15.4468 121.595 15.5474 121.1 15.5474C119.962 15.5474 119.368 15.4468 118.131 15.4468C117.191 15.4468 114.914 15.648 114.32 15.648C113.874 15.648 113.479 15.4971 113.479 15.2455C113.479 14.9939 113.874 14.6417 114.27 14.4908C115.656 14.0883 115.854 13.7361 116.003 12.3776C116.052 11.7738 116.052 10.4656 116.052 9.35871C116.052 6.03795 116.102 4.22663 115.953 3.47191C116.003 2.66688 115.458 1.96248 114.666 1.86185C114.072 1.71091 113.775 1.35871 113.775 1.05682C113.825 0.754933 114.122 0.704619 114.617 0.704619Z" fill="#052955"/>
<path id="Vector_7" d="M131 0.604004C131.445 0.604004 134.464 0.805262 135.503 0.805262C135.751 0.805262 135.998 1.10715 136.147 1.30841C136.493 1.81155 137.384 2.61658 138.176 3.62287C138.968 4.62916 142.828 8.65432 144.214 9.96249C144.313 10.0631 144.462 10.0128 144.462 9.86187C144.61 7.74866 144.561 5.63545 144.363 3.52224C144.264 2.56627 143.818 2.06312 142.482 1.71092C141.938 1.55998 141.641 1.45935 141.641 1.15746C141.641 0.855576 142.235 0.704633 142.531 0.704633C143.571 0.704633 144.511 0.805262 145.254 0.805262C145.897 0.805262 146.639 0.654318 147.431 0.654318C147.877 0.654318 148.223 0.754947 148.223 1.05683C148.223 1.35872 147.926 1.45935 147.332 1.71092C146.293 2.11344 146.095 2.46564 145.947 3.57256C145.798 4.98136 145.65 9.96249 145.65 11.0694C145.65 12.1763 145.798 14.3399 145.798 14.5914C145.798 15.648 145.65 16.0002 145.254 16.0002C144.66 15.8996 144.066 15.5977 143.62 15.1449C142.977 14.3902 141.938 13.0317 140.106 11.0191C138.622 9.45935 136.592 7.04426 134.86 5.28325C134.811 5.18262 134.613 5.18262 134.613 5.38388C134.563 6.54111 134.464 10.5663 134.563 12.5788C134.613 13.3839 135.058 14.038 136.295 14.4405C136.642 14.5914 136.988 14.7424 136.988 14.9436C136.988 15.2958 136.642 15.4468 136.097 15.4468C135.998 15.4468 135.157 15.3965 134.266 15.3965C133.524 15.3965 132.187 15.5474 131.297 15.5474C130.802 15.5474 130.455 15.3461 130.455 15.0443C130.455 14.843 130.653 14.6921 131.247 14.5411C132.682 14.1386 132.93 13.4342 133.029 12.4279C133.128 11.5222 133.326 7.64803 133.326 5.93734C133.326 4.93105 133.326 3.77382 133.276 3.57256C133.029 2.96878 132.682 2.46564 132.187 2.06312C131.791 1.86187 131.396 1.71092 130.95 1.61029C130.406 1.45935 130.158 1.25809 130.158 0.956205C130.158 0.805262 130.455 0.604004 131 0.604004Z" fill="#052955"/>
</g>
</g>
</g>
<defs>
<clipPath id="clip0_35_346">
<rect width="166" height="16" fill="white"/>
</clipPath>
</defs>
</svg>
