<svg width="115" height="34" viewBox="0 0 115 34" fill="none" xmlns="http://www.w3.org/2000/svg">
<g id="Frame 1171276663">
<path id="Vector" fill-rule="evenodd" clip-rule="evenodd" d="M71.3443 26.5914C64.6718 31.4069 54.9736 33.9999 46.6262 33.9999C34.929 33.9999 24.3934 29.7665 16.4242 22.7283C15.8029 22.1727 16.3702 21.4318 17.0995 21.8552C25.6901 26.7501 36.3337 29.7136 47.3016 29.7136C54.7035 29.7136 62.8618 28.2054 70.3448 25.1097C71.5064 24.5805 72.4519 25.7711 71.3443 26.5914Z" fill="#FFAF0A"/>
<path id="Vector_2" fill-rule="evenodd" clip-rule="evenodd" d="M74.1272 23.4692C73.2628 22.4109 68.4812 22.9665 66.3201 23.2046C65.6718 23.284 65.5637 22.7284 66.158 22.3315C69.967 19.6856 76.2344 20.4529 76.9908 21.3525C77.7201 22.2521 76.8017 28.3906 73.2087 31.3276C72.6685 31.7774 72.1282 31.5393 72.3713 30.9307C73.1547 28.9463 74.9647 24.5276 74.1272 23.4692Z" fill="#FFAF0A"/>
<path id="Vector_3" fill-rule="evenodd" clip-rule="evenodd" d="M66.4552 3.73074V1.1642C66.4552 0.820232 66.7254 0.529183 67.0766 0.529183H67.1036H78.8008C79.179 0.529183 79.4762 0.793773 79.4762 1.1642V3.36031C79.4762 3.73074 79.152 4.207 78.5847 4.97432L72.5335 13.4412C74.7757 13.3883 77.1529 13.7058 79.206 14.8436C79.6653 15.1082 79.8003 15.4786 79.8273 15.849V18.5743C79.8273 18.9447 79.3951 19.3945 78.9629 19.1564C75.37 17.3043 70.5884 17.1191 66.5903 19.1829C66.1851 19.3945 65.7529 18.9712 65.7529 18.6008V16.0078C65.7529 15.5844 65.7529 14.87 66.1851 14.235L73.2088 4.36576H67.1036C66.7794 4.39222 66.4552 4.12762 66.4552 3.73074ZM23.7726 19.7121H20.2067C19.8825 19.6856 19.6124 19.4475 19.5584 19.13V1.24358C19.5584 0.873151 19.8555 0.608557 20.2337 0.608557H23.5565C23.9077 0.635016 24.1778 0.873149 24.2048 1.21712V3.54552H24.2589C25.1233 1.2965 26.7442 0.238131 28.9323 0.238131C31.1475 0.238131 32.5523 1.2965 33.5518 3.54552C34.4163 1.2965 36.3613 0.238131 38.4684 0.238131C39.9542 0.238131 41.6021 0.846689 42.6016 2.19611C43.7362 3.70428 43.4931 5.90039 43.4931 7.80545V19.1035C43.4931 19.4739 43.1689 19.765 42.8177 19.7385H39.2518C38.9006 19.7121 38.6305 19.4475 38.6035 19.1035V9.63113C38.6035 8.86381 38.6845 6.98521 38.4954 6.27082C38.2253 5.08015 37.4419 4.73618 36.4153 4.73618C35.5509 4.73618 34.6594 5.29183 34.2812 6.19144C33.93 7.09105 33.957 8.59922 33.957 9.63113V19.1035C33.957 19.4739 33.6328 19.765 33.2817 19.7385H29.7158C29.3646 19.7121 29.0674 19.4475 29.0674 19.1035V9.63113C29.0674 7.64669 29.3916 4.70972 26.8793 4.70972C24.3129 4.70972 24.421 7.56731 24.421 9.63113V19.1035C24.475 19.421 24.1508 19.7121 23.7726 19.7121ZM89.5795 0.21167C94.8743 0.21167 97.7108 4.65681 97.7108 10.2926C97.7108 15.7432 94.5501 20.0825 89.5795 20.0825C84.3928 20.0825 81.5563 15.6374 81.5563 10.1074C81.5563 4.52451 84.4198 0.21167 89.5795 0.21167ZM89.6065 3.86303C86.9861 3.86303 86.8241 7.35564 86.8241 9.55175C86.8241 11.7479 86.797 16.4047 89.5795 16.4047C92.335 16.4047 92.47 12.6475 92.47 10.3455C92.47 8.83735 92.416 7.03813 91.9298 5.60934C91.5245 4.3393 90.7411 3.86303 89.6065 3.86303ZM104.572 19.7121H101.034C100.682 19.6856 100.412 19.421 100.385 19.077V1.19066C100.412 0.846693 100.709 0.608557 101.061 0.608557H104.356C104.654 0.608557 104.924 0.820233 105.005 1.11128V3.83658H105.059C106.058 1.40233 107.463 0.21167 109.921 0.21167C111.515 0.21167 113.082 0.767312 114.082 2.3284C115 3.75719 115 6.16498 115 7.91128V19.1829C114.946 19.5004 114.649 19.7385 114.325 19.7385H110.759C110.435 19.7121 110.164 19.4739 110.137 19.1829V9.47237C110.137 7.51439 110.381 4.65681 107.895 4.65681C107.031 4.65681 106.22 5.23891 105.842 6.0856C105.329 7.17043 105.275 8.25525 105.275 9.47237V19.1035C105.248 19.421 104.951 19.7121 104.572 19.7121ZM57.1353 11.1658C57.1353 12.5152 57.1623 13.6529 56.4599 14.87C55.8926 15.849 55.0012 16.4576 54.0016 16.4576C52.6239 16.4576 51.8405 15.4257 51.8405 13.944C51.8405 10.9805 54.5689 10.4249 57.1353 10.4249V11.1658ZM60.7282 19.6591C60.4851 19.8444 60.1609 19.8973 59.8908 19.7385C58.7021 18.786 58.486 18.3362 57.8377 17.4101C55.8926 19.3681 54.4879 19.9502 51.9756 19.9502C48.977 19.9502 46.6537 18.151 46.6537 14.5261C46.6537 11.6949 48.2206 9.76342 50.4628 8.83735C52.4078 7.99066 55.0822 7.85836 57.1623 7.62023V7.17042C57.1623 6.35019 57.2163 5.37121 56.7301 4.63035C56.2979 3.99533 55.4604 3.73074 54.731 3.73074C53.3803 3.73074 52.1647 4.41868 51.8675 5.82101C51.8135 6.13852 51.5704 6.45603 51.2462 6.45603L47.7884 6.0856C47.4912 6.03268 47.167 5.79455 47.2481 5.34475C48.0315 1.24358 51.8135 0 55.2173 0C56.9462 0 59.2154 0.449803 60.5931 1.7463C62.3221 3.33385 62.16 5.45058 62.16 7.75252V13.2031C62.16 14.8436 62.8623 15.558 63.5107 16.4311C63.7268 16.7486 63.7808 17.1191 63.4837 17.3572C62.5382 18.1245 61.6467 18.8918 60.7282 19.6591ZM10.4816 11.1658C10.4816 12.5152 10.5086 13.6529 9.8062 14.87C9.2389 15.849 8.34743 16.4576 7.3479 16.4576C5.97017 16.4576 5.18675 15.4257 5.18675 13.944C5.18675 10.9805 7.9152 10.4249 10.4816 10.4249V11.1658ZM14.0745 19.6591C13.8313 19.8444 13.5072 19.8973 13.237 19.7385C12.0484 18.786 11.8323 18.3362 11.1839 17.4101C9.2389 19.3681 7.86117 19.9502 5.32182 19.9502C2.32323 19.9502 0 18.151 0 14.5261C0 11.6949 1.56683 9.76342 3.80902 8.83735C5.75405 7.99066 8.42847 7.85836 10.5086 7.62023V7.17042C10.5086 6.35019 10.5626 5.37121 10.0763 4.63035C9.64411 3.99533 8.80667 3.73074 8.07728 3.73074C6.72657 3.73074 5.51092 4.41868 5.21376 5.82101C5.15974 6.13852 4.91661 6.45603 4.59244 6.45603L1.1346 6.0856C0.837443 6.03268 0.513271 5.79455 0.594314 5.34475C1.37773 1.24358 5.15974 0 8.56354 0C10.2925 0 12.5617 0.449803 13.9124 1.7463C15.6413 3.33385 15.4792 5.45058 15.4792 7.75252V13.2031C15.4792 14.8436 16.1816 15.558 16.8299 16.4311C17.0731 16.7486 17.1001 17.1191 16.8299 17.3572C15.8844 18.1245 14.9659 18.8918 14.0745 19.6591Z" fill="#010202"/>
</g>
</svg>
