<svg width="175" height="80" viewBox="0 0 175 80" fill="none" xmlns="http://www.w3.org/2000/svg">
<g id="Frame 1171276678">
<path id="Vector" d="M69.17 34.26V45.47H76.93V42.94H72.16V34.26H69.17ZM104.41 34.26H99.88V45.47H102.88V42.25H104.42C107.27 42.25 108.85 40.57 108.85 38.25C108.85 35.93 107.26 34.26 104.41 34.26ZM104.26 39.75H102.87V36.8H104.26C104.464 36.7832 104.669 36.8089 104.863 36.8754C105.056 36.9419 105.234 37.0478 105.384 37.1864C105.535 37.325 105.655 37.4933 105.737 37.6807C105.819 37.868 105.862 38.0704 105.862 38.275C105.862 38.4796 105.819 38.682 105.737 38.8694C105.655 39.0567 105.535 39.225 105.384 39.3637C105.234 39.5023 105.056 39.6082 104.863 39.6747C104.669 39.7412 104.464 39.7668 104.26 39.75ZM123.3 38.69L121.81 38.2C121.27 38.02 121.02 37.8 121.02 37.37C121.02 36.94 121.39 36.6 122.11 36.6C122.473 36.5874 122.834 36.6532 123.169 36.793C123.503 36.9328 123.804 37.1433 124.05 37.41L125.77 35.61C125.288 35.1029 124.7 34.7076 124.049 34.452C123.398 34.1963 122.698 34.0864 122 34.13C120 34.13 118.17 35.26 118.17 37.47C118.17 39.32 119.33 40.31 120.96 40.85L122.28 41.3C123.02 41.54 123.38 41.77 123.38 42.3C123.38 42.93 122.85 43.19 121.96 43.19C121.5 43.1921 121.047 43.082 120.639 42.8695C120.231 42.6569 119.882 42.3482 119.62 41.97L117.4 43.55C117.946 44.2376 118.648 44.7849 119.448 45.1467C120.248 45.5084 121.123 45.6741 122 45.63C125 45.63 126.26 44.15 126.26 42.09C126.3 40.51 125.54 39.43 123.3 38.69ZM144 36.78V34.26H135.91V45.47H144V42.94H138.91V41.02H142.96V38.63H138.91V36.78H144ZM32 45.47H40.09V42.94H35V41.02H39.05V38.63H35V36.78H40.09V34.26H32V45.47ZM59.48 43.19L57.29 41.64C56.9138 42.1758 56.3766 42.5777 55.7565 42.7875C55.1363 42.9974 54.4655 43.0041 53.8412 42.8068C53.217 42.6096 52.6719 42.2185 52.2849 41.6904C51.898 41.1623 51.6894 40.5247 51.6894 39.87C51.6894 39.2153 51.898 38.5777 52.2849 38.0496C52.6719 37.5215 53.217 37.1305 53.8412 36.9332C54.4655 36.7359 55.1363 36.7427 55.7565 36.9525C56.3766 37.1623 56.9138 37.5642 57.29 38.1L59.48 36.55C58.7753 35.5535 57.7717 34.807 56.6145 34.4187C55.4574 34.0304 54.2067 34.0204 53.0435 34.3902C51.8803 34.7599 50.8649 35.4902 50.1443 36.4754C49.4237 37.4605 49.0353 38.6494 49.0353 39.87C49.0353 41.0906 49.4237 42.2795 50.1443 43.2646C50.8649 44.2498 51.8803 44.9801 53.0435 45.3498C54.2067 45.7196 55.4574 45.7096 56.6145 45.3213C57.7717 44.933 58.7753 44.1866 59.48 43.19ZM85.58 31.26H88.58C86.6637 23.7463 82.2983 17.0855 76.1736 12.3299C70.0489 7.57426 62.5142 4.99513 54.76 5.00001H53.27C60.7626 5.32331 67.9516 8.05224 73.7714 12.7823C79.5912 17.5123 83.732 23.9917 85.58 31.26ZM86.2 34.26C86.498 36.112 86.648 37.984 86.65 39.86C86.6475 41.7389 86.497 43.6147 86.2 45.47H89.2C89.8 41.757 89.8 37.972 89.2 34.26H86.2ZM53.27 74.69H54.76C62.5051 74.6899 70.0298 72.112 76.1479 67.3628C82.2659 62.6136 86.6293 55.9631 88.55 48.46H85.55C83.7023 55.7203 79.5648 62.1922 73.7506 66.9167C67.9363 71.6413 60.7548 74.367 53.27 74.69Z" fill="#1F2536"/>
</g>
</svg>
