<svg width="201" height="80" viewBox="0 0 201 80" fill="none" xmlns="http://www.w3.org/2000/svg">
<g clip-path="url(#clip0_35_345)">
<path d="M32.669 32.7075C35.7291 32.7075 36.0536 32.5189 36.7954 32.1415C36.8882 32.0943 37.2591 32.2358 37.2591 32.6132C37.2127 33.6509 37.3518 35.3962 37.3518 35.7736C37.3518 36.1038 37.0736 36.434 36.7491 36.4811C36.5173 36.4811 36.3782 36.3396 36.1927 35.7736C35.7291 34.5 35.3118 34.217 34.6627 34.0755C33.7354 33.934 32.8081 33.934 31.8808 34.0755C31.7417 34.1226 31.649 34.2642 31.649 34.4528C31.6026 34.8774 31.6026 38.3208 31.6026 41.3868C31.5563 42.3302 31.6026 43.2736 31.7417 44.217C31.8345 44.8774 32.0663 45.1132 33.179 45.4434C33.7818 45.5849 34.0136 45.7264 34.0136 46.0094C34.0136 46.3868 33.4572 46.4811 33.0863 46.4811C31.8345 46.4811 31.2781 46.3396 29.8872 46.3396C29.099 46.3396 27.1517 46.5283 26.4098 46.5283C25.8998 46.5283 25.5753 46.3396 25.5753 46.0566C25.5753 45.7736 25.9462 45.5849 26.3635 45.4906C27.8935 45.1132 27.9862 44.5943 28.079 43.3679C28.2181 40.9623 28.3108 38.0849 28.3108 34.5943C28.3108 34.4057 28.2644 34.1226 28.1253 34.1226C27.198 33.9811 26.2708 33.9811 25.3435 34.0755C24.8335 34.217 24.4625 34.5 23.8598 35.5377C23.5353 36.1981 23.3962 36.3396 23.2107 36.3396C22.9325 36.3868 22.7471 36.0094 22.7471 35.6792C22.7471 35.3491 23.0716 33.0849 23.1643 32.4245C23.1643 32.1887 23.3498 32 23.628 32C23.8598 32 24.138 32.283 24.2771 32.3774C24.7407 32.6132 25.2971 32.7547 27.8471 32.7547H32.669V32.7075Z" fill="#052955"/>
<path d="M46.5781 32.6606C46.8563 32.6606 48.8036 32.7549 49.6381 32.7549C50.4727 32.7549 52.2345 32.6134 52.9764 32.6134C53.2545 32.5662 53.5327 32.7549 53.5327 32.9436C53.5327 33.2266 53.0691 33.5096 52.7445 33.604C51.4463 33.887 51.4463 34.17 51.3536 35.2078C51.2609 36.0096 51.2609 38.1794 51.2609 40.1606C51.2609 41.2455 51.2609 42.5662 51.3073 43.2266C51.3536 44.9719 51.4 45.2549 52.7445 45.5379C53.2082 45.6794 53.44 45.9153 53.44 46.1983C53.44 46.4813 53.1155 46.5757 52.6518 46.5757C51.5854 46.5757 51.0291 46.4813 49.87 46.4813C48.989 46.4813 46.8563 46.67 46.2999 46.67C45.8826 46.67 45.5117 46.5285 45.5117 46.2927C45.5117 46.0568 45.8826 45.7266 46.2535 45.5851C47.5517 45.2078 47.7372 44.8776 47.8763 43.604C47.9227 43.0379 47.9227 41.8115 47.9227 40.7738C47.9227 37.6606 47.969 35.9625 47.8299 35.2549C47.8763 34.5002 47.3663 33.8398 46.6245 33.7455C46.0681 33.604 45.7899 33.2738 45.7899 32.9908C45.8363 32.7077 46.1145 32.6606 46.5781 32.6606Z" fill="#052955"/>
<path d="M74.2573 45.2077C73.2373 45.9153 71.4291 46.6228 68.7863 46.6228C66.839 46.6228 64.3817 46.387 63.4544 46.387C62.898 46.387 62.4344 46.4342 62.0171 46.4342C61.5071 46.4342 61.0435 46.1983 61.0435 45.9625C61.0435 45.7266 61.4144 45.4908 61.9244 45.4436C63.5008 45.1606 63.6399 44.5474 63.7326 43.6983C63.8253 42.9436 63.8717 42.1889 63.8253 41.4342C63.8253 40.3493 63.779 36.7172 63.7326 35.1606C63.6862 34.3115 63.4544 33.9813 62.0635 33.7455C61.6926 33.6983 61.4607 33.4625 61.4607 33.2738C61.4607 32.9908 61.9244 32.8021 62.4344 32.8021H64.2426C65.4944 32.8021 67.5345 32.6134 68.6936 32.6134C70.7336 32.6134 72.9591 32.9908 74.4891 34.0285C76.2509 35.2077 77.3173 37.236 77.271 39.4059C77.3173 41.7172 76.2046 43.9342 74.2573 45.2077ZM71.9391 35.2077C71.1045 34.2172 69.899 33.604 68.6472 33.5568C68.2763 33.604 67.9054 33.6983 67.5808 33.887C67.4417 34.0285 67.349 34.17 67.3026 34.3587C67.2563 34.9247 67.2099 35.3021 67.2099 39.453C67.2099 41.1511 67.2563 42.4719 67.2563 43.2738C67.2563 43.8398 67.4417 44.3587 67.7663 44.7832C68.2299 45.2077 68.8327 45.4908 69.4354 45.5851C70.1772 45.5379 70.8727 45.3021 71.5218 44.9247C72.5418 44.3115 73.5618 42.1889 73.5618 39.6417C73.6082 38.0379 73.0518 36.4342 71.9391 35.2077Z" fill="#052955"/>
<path d="M91.2262 38.887C92.4317 38.887 92.6172 38.604 93.0808 37.5662C93.2199 37.236 93.4517 36.9058 93.7299 36.9058C94.0081 36.9058 94.0081 37.236 94.0081 37.8021C94.0081 37.9907 93.9617 38.604 93.9617 39.3115C93.9617 40.2077 94.0081 40.5379 94.0081 41.1983C94.0081 41.8587 93.7763 42.0002 93.5445 42.0002C93.3126 42.0002 93.0808 41.7172 92.9417 41.2926C92.7099 40.6323 92.6172 40.3021 92.339 40.2077C91.5508 40.0662 90.7626 40.0662 89.9744 40.1134C89.8353 40.1134 89.7426 40.3492 89.6962 40.5379C89.6035 41.8115 89.6035 43.0851 89.7426 44.3587C89.8353 44.6417 89.9744 44.9247 90.2062 45.0662C90.809 45.2549 91.4581 45.3492 92.1072 45.3492C92.6635 45.3492 93.1735 45.3021 93.6836 45.2077C94.6572 44.9247 95.399 44.17 96.0481 43.1323C96.2336 42.8021 96.3727 42.5662 96.6045 42.5662C96.9291 42.5662 96.9754 43.0851 96.9754 43.3681C96.8827 44.3587 96.6045 45.3021 96.1872 46.1983C96.0018 46.4341 95.7236 46.5757 95.399 46.5757C93.8226 46.5757 91.9681 46.4341 87.9344 46.4341C86.9607 46.4341 85.338 46.5757 84.6425 46.5757C83.9471 46.5757 83.5298 46.387 83.5298 46.104C83.5298 45.8209 84.0398 45.5851 84.4107 45.4907C85.8016 45.1606 85.9871 44.8775 86.1262 43.6511C86.1725 42.6606 86.2189 41.0568 86.2189 39.1228C86.2189 37.7549 86.2189 36.0096 86.1725 34.9247C86.1262 34.3115 85.9871 33.9813 84.9207 33.6511C84.5498 33.5568 84.1325 33.3681 84.1325 32.9907C84.1325 32.8492 84.318 32.6134 84.9671 32.6134C85.5234 32.6134 86.8216 32.7549 88.1662 32.7549C92.9881 32.7549 94.3327 32.8021 95.0745 32.6134C95.1672 32.5662 95.5381 32.7077 95.5381 32.8964C95.5845 33.6983 95.6772 34.5474 95.8163 35.3492C95.8627 35.9624 95.5845 36.3398 95.3527 36.3398C95.1209 36.3398 94.889 36.0568 94.6572 35.4436C94.379 34.453 93.4517 33.8398 92.4317 33.8398C91.5972 33.7926 90.7626 33.7455 89.928 33.7926C89.8353 33.7926 89.6962 34.0285 89.6499 34.17C89.6035 34.6417 89.5571 37.6134 89.6035 38.3681C89.6035 38.4624 89.7426 38.6983 89.8817 38.7455C90.2062 38.8398 90.809 38.887 91.2262 38.887Z" fill="#052955"/>
<path d="M105.925 32.6606C106.296 32.6606 107.316 32.7549 108.614 32.7549C109.634 32.7549 111.396 32.6606 112.091 32.6134C112.323 32.6134 112.74 32.7549 112.74 32.9908C112.74 33.2266 112.647 33.5096 111.906 33.604C111.303 33.6511 110.793 34.1228 110.7 34.736C110.607 35.7266 110.515 40.0662 110.515 42.0474C110.515 42.7549 110.561 43.7455 110.607 44.4059C110.7 44.8304 111.025 45.1606 111.396 45.2549C112.091 45.3493 112.787 45.3964 113.436 45.3964C114.085 45.4436 114.687 45.2077 115.151 44.736C115.615 44.2643 116.078 43.7455 116.496 43.2266C116.867 42.6134 117.145 42.3776 117.377 42.3776C117.608 42.3776 117.701 42.9436 117.516 43.4153C117.145 44.3115 116.82 45.2077 116.542 46.104C116.449 46.3398 116.31 46.4813 116.078 46.5757C115.429 46.6228 114.78 46.67 114.131 46.6228C112.416 46.6228 111.025 46.4342 108.846 46.4342C107.316 46.4342 106.203 46.5757 105.461 46.5757C104.858 46.5757 104.58 46.3398 104.58 46.104C104.58 45.9153 104.812 45.6323 105.507 45.4908C106.666 45.3021 106.898 44.8776 107.037 44.0757C107.176 42.4719 107.176 40.8681 107.176 39.2643C107.176 38.1323 107.223 36.2455 107.176 35.0662C107.13 34.17 106.945 33.887 105.971 33.6511C105.276 33.5096 105.09 33.2738 105.09 33.0379C105.09 32.8021 105.276 32.6606 105.925 32.6606Z" fill="#052955"/>
<path d="M126.371 32.6606C126.649 32.6606 128.597 32.7549 129.431 32.7549C130.266 32.7549 132.028 32.6134 132.769 32.6134C133.048 32.5662 133.326 32.7549 133.326 32.9436C133.326 33.2266 132.862 33.5096 132.538 33.604C131.239 33.887 131.239 34.17 131.147 35.2078C131.054 36.0096 131.054 38.1794 131.054 40.1606C131.054 41.2455 131.054 42.5662 131.1 43.2266C131.147 44.9719 131.193 45.2549 132.538 45.5379C133.001 45.6794 133.233 45.9153 133.233 46.1983C133.233 46.4813 132.908 46.5757 132.445 46.5757C131.378 46.5757 130.822 46.4813 129.663 46.4813C128.782 46.4813 126.649 46.67 126.093 46.67C125.676 46.67 125.305 46.5285 125.305 46.2927C125.305 46.0568 125.676 45.7266 126.047 45.5851C127.345 45.2078 127.53 44.8776 127.669 43.604C127.716 43.0379 127.716 41.8115 127.716 40.7738C127.716 37.6606 127.762 35.9625 127.623 35.2549C127.669 34.5002 127.159 33.8398 126.417 33.7455C125.861 33.604 125.583 33.2738 125.583 32.9908C125.629 32.7077 125.907 32.6606 126.371 32.6606Z" fill="#052955"/>
<path d="M141.718 32.5663C142.135 32.5663 144.963 32.7549 145.937 32.7549C146.169 32.7549 146.401 33.038 146.54 33.2266C146.864 33.6983 147.699 34.453 148.441 35.3964C149.183 36.3398 152.799 40.1134 154.097 41.3398C154.19 41.4342 154.329 41.387 154.329 41.2455C154.468 39.2644 154.422 37.2832 154.236 35.3021C154.144 34.4059 153.726 33.9342 152.474 33.604C151.964 33.4625 151.686 33.3681 151.686 33.0851C151.686 32.8021 152.243 32.6606 152.521 32.6606C153.494 32.6606 154.375 32.7549 155.071 32.7549C155.674 32.7549 156.369 32.6134 157.111 32.6134C157.528 32.6134 157.853 32.7078 157.853 32.9908C157.853 33.2738 157.574 33.3681 157.018 33.604C156.044 33.9813 155.859 34.3115 155.72 35.3493C155.581 36.67 155.442 41.3398 155.442 42.3776C155.442 43.4153 155.581 45.4436 155.581 45.6795C155.581 46.67 155.442 47.0002 155.071 47.0002C154.514 46.9059 153.958 46.6229 153.541 46.1983C152.938 45.4908 151.964 44.2172 150.249 42.3304C148.858 40.8681 146.957 38.604 145.334 36.953C145.288 36.8587 145.102 36.8587 145.102 37.0474C145.056 38.1323 144.963 41.9059 145.056 43.7927C145.102 44.5474 145.52 45.1606 146.679 45.538C147.003 45.6795 147.328 45.821 147.328 46.0097C147.328 46.3398 147.003 46.4813 146.493 46.4813C146.401 46.4813 145.612 46.4342 144.778 46.4342C144.082 46.4342 142.831 46.5757 141.996 46.5757C141.532 46.5757 141.208 46.387 141.208 46.104C141.208 45.9153 141.393 45.7738 141.95 45.6323C143.294 45.2549 143.526 44.5946 143.619 43.6512C143.712 42.8021 143.897 39.17 143.897 37.5663C143.897 36.6229 143.897 35.538 143.851 35.3493C143.619 34.7832 143.294 34.3115 142.831 33.9342C142.46 33.7455 142.089 33.604 141.672 33.5096C141.162 33.3681 140.93 33.1795 140.93 32.8964C140.93 32.7549 141.208 32.5663 141.718 32.5663Z" fill="#052955"/>
<path d="M172.457 38.887C173.662 38.887 173.848 38.604 174.311 37.5662C174.45 37.236 174.682 36.9058 174.96 36.9058C175.239 36.9058 175.239 37.236 175.239 37.8021C175.239 37.9907 175.192 38.604 175.192 39.3115C175.192 40.2077 175.239 40.5379 175.239 41.1983C175.239 41.8587 175.007 42.0002 174.775 42.0002C174.543 42.0002 174.311 41.7172 174.172 41.2926C173.94 40.6323 173.848 40.3021 173.569 40.2077C172.781 40.0662 171.993 40.0662 171.205 40.1134C171.112 40.1134 170.973 40.3492 170.927 40.5379C170.834 41.8115 170.834 43.0851 170.973 44.3587C171.066 44.6417 171.205 44.8775 171.437 45.0662C172.039 45.2549 172.689 45.3492 173.338 45.3492C173.894 45.3492 174.45 45.3021 174.96 45.2077C175.888 44.9247 176.676 44.17 177.325 43.1323C177.557 42.8021 177.65 42.5662 177.881 42.5662C178.206 42.5662 178.252 43.0851 178.252 43.3681C178.16 44.3587 177.881 45.3021 177.464 46.1983C177.279 46.4341 177 46.5757 176.676 46.5757C175.146 46.5757 173.245 46.4341 169.211 46.4341C168.284 46.4341 166.615 46.5757 165.919 46.5757C165.224 46.5757 164.807 46.387 164.807 46.104C164.807 45.8209 165.317 45.5851 165.688 45.4907C167.078 45.1606 167.264 44.8775 167.403 43.6511C167.449 42.6606 167.496 41.0568 167.496 39.1228C167.496 37.7549 167.496 36.0096 167.449 34.9247C167.403 34.3115 167.264 33.9813 166.198 33.6511C165.827 33.5568 165.409 33.3681 165.409 32.9907C165.409 32.8492 165.641 32.6134 166.244 32.6134C166.754 32.6134 168.099 32.7549 169.443 32.7549C174.265 32.7549 175.61 32.8021 176.351 32.6134C176.49 32.5662 176.815 32.7077 176.815 32.8964C176.861 33.6983 176.954 34.5474 177.093 35.3492C177.14 35.9624 176.861 36.3398 176.63 36.3398C176.398 36.3398 176.166 36.0568 175.934 35.4436C175.61 34.453 174.682 33.7926 173.709 33.887C172.874 33.8398 172.039 33.7926 171.205 33.8398C171.112 33.8398 170.973 34.0757 170.927 34.2172C170.88 34.6889 170.834 37.6606 170.88 38.4153C170.88 38.5096 171.019 38.7455 171.159 38.7926C171.437 38.8398 172.039 38.887 172.457 38.887Z" fill="#052955"/>
</g>
<defs>
<clipPath id="clip0_35_345">
<rect width="163" height="15" fill="white" transform="translate(19 32)"/>
</clipPath>
</defs>
</svg>
