<svg width="226" height="49" viewBox="0 0 226 49" fill="none" xmlns="http://www.w3.org/2000/svg">
<g id="About Greentown - Greentown Labs-4 1" clip-path="url(#clip0_35_311)">
<g id="Layer 2">
<g id="Layer 1">
<path id="Vector" d="M76.5236 30.4427H76.4761C75.3317 32.3682 73.7646 33.071 71.7797 33.071C70.6859 33.1131 69.5959 32.9151 68.5845 32.4906C67.5732 32.066 66.6642 31.4249 65.92 30.6111C64.4499 28.8564 63.6749 26.6109 63.7451 24.3098C63.7451 21.4937 64.7281 19.0146 66.4803 17.3972C67.9592 16.0784 69.883 15.3886 71.851 15.4716C76.0582 15.4716 78.461 17.816 78.9976 21.1327H75.6736C75.2984 19.5008 74.0591 18.3166 71.9127 18.3166C68.7596 18.3166 67.1926 20.969 67.1926 24.3291C67.1926 27.7854 68.9923 30.3223 71.8652 30.3223C74.4579 30.3223 76.1389 28.3535 76.1389 26.4713V26.375H72.1786V23.7177H79.2113V32.734H76.6423L76.5236 30.4427Z" fill="#403260"/>
<path id="Vector_2" d="M84.3491 22.5095H84.4203C85.1469 21.1375 85.9636 20.4251 87.3645 20.4251C87.6167 20.4097 87.8696 20.4424 88.11 20.5214V23.3375H88.0435C85.9636 23.1257 84.4678 24.2376 84.4678 26.7986V32.7341H81.291V20.5695H84.3491V22.5095Z" fill="#403260"/>
<path id="Vector_3" d="M88.5566 26.6301C88.5566 23.0294 90.9642 20.2373 94.4686 20.2373C98.3198 20.2373 100.376 23.2219 100.376 27.5544H91.686C91.9186 29.4269 92.9491 30.5871 94.7488 30.5871C95.2428 30.6328 95.7379 30.5112 96.1564 30.2411C96.5749 29.9711 96.8932 29.5679 97.0614 29.0948H100.195C99.7491 31.2466 97.8591 33.071 94.7773 33.071C90.798 33.071 88.5566 30.2549 88.5566 26.6301ZM91.7334 25.3304H97.0614C96.9664 23.7899 95.9644 22.7213 94.5161 22.7213C92.8304 22.7213 92.0136 23.7418 91.7334 25.3304Z" fill="#403260"/>
<path id="Vector_4" d="M101.264 26.6301C101.264 23.0294 103.671 20.2373 107.176 20.2373C111.032 20.2373 113.088 23.2219 113.088 27.5544H104.398C104.63 29.4269 105.656 30.5871 107.456 30.5871C107.95 30.6337 108.445 30.5124 108.864 30.2422C109.283 29.972 109.601 29.5684 109.768 29.0948H112.898C112.456 31.2466 110.561 33.071 107.48 33.071C103.519 33.071 101.264 30.2549 101.264 26.6301ZM104.445 25.3304H109.768C109.673 23.7899 108.671 22.7213 107.223 22.7213C105.542 22.7213 104.725 23.7418 104.469 25.3304H104.445Z" fill="#403260"/>
<path id="Vector_5" d="M117.666 22.2254H117.737C118.089 21.5915 118.607 21.0686 119.234 20.7144C119.861 20.3601 120.572 20.1884 121.289 20.2181C123.763 20.2181 125.42 22.1147 125.42 24.7671V32.734H122.243V25.2582C122.243 23.9536 121.498 23.0294 120.168 23.0294C118.744 23.0294 117.737 24.1702 117.737 25.8262V32.734H114.56V20.5695H117.666V22.2254Z" fill="#403260"/>
<path id="Vector_6" d="M126.45 20.5695H128.107V16.781H131.218V20.5695H133.274V22.702H131.218V29.1429C131.194 29.3072 131.208 29.4749 131.259 29.6326C131.311 29.7903 131.398 29.9336 131.514 30.0511C131.63 30.1685 131.771 30.2568 131.927 30.309C132.082 30.3611 132.248 30.3755 132.41 30.3512C132.804 30.3512 133.359 30.3512 133.359 30.3512V32.7196C133.359 32.7196 132.638 32.7629 131.374 32.7629C129.836 32.7629 128.126 32.1516 128.126 29.8506V22.702H126.469L126.45 20.5695Z" fill="#403260"/>
<path id="Vector_7" d="M134.209 26.6542C134.209 23.0294 136.759 20.2181 140.468 20.2181C144.177 20.2181 146.732 23.0294 146.732 26.6542C146.732 30.279 144.182 33.071 140.468 33.071C136.755 33.071 134.209 30.279 134.209 26.6542ZM143.507 26.6542C143.507 24.2858 142.406 22.6779 140.468 22.6779C138.531 22.6779 137.429 24.2858 137.429 26.6542C137.429 29.0226 138.507 30.6111 140.468 30.6111C142.429 30.6111 143.507 29.0226 143.507 26.6542Z" fill="#403260"/>
<path id="Vector_8" d="M146.917 20.5695H150.056L151.504 26.2065C151.761 27.1981 152.041 28.4786 152.041 28.4786H152.088C152.088 28.4786 152.345 27.1741 152.601 26.1824L154.097 20.5695H156.808L158.371 26.1824C158.632 27.1981 158.936 28.4786 158.936 28.4786H158.978C158.978 28.4786 159.259 27.1981 159.52 26.2065L161.035 20.5695H164.121L160.56 32.734H157.654L156.063 26.7649C155.806 25.8021 155.526 24.6564 155.526 24.6564H155.479C155.479 24.6564 155.175 25.7925 154.918 26.7649L153.294 32.734H150.421L146.917 20.5695Z" fill="#403260"/>
<path id="Vector_9" d="M168.361 22.2254H168.433C168.785 21.5919 169.303 21.0693 169.93 20.7151C170.557 20.3609 171.268 20.1889 171.984 20.2181C174.459 20.2181 176.121 22.1147 176.121 24.7672V32.734H172.944V25.2582C172.944 23.9536 172.193 23.0294 170.864 23.0294C169.534 23.0294 168.433 24.1702 168.433 25.8262V32.734H165.251V20.5695H168.357L168.361 22.2254Z" fill="#403260"/>
<path id="Vector_10" d="M181.074 15.7845H182.641V31.2466H191.54V32.734H181.093L181.074 15.7845Z" fill="#403260"/>
<path id="Vector_11" d="M192.522 29.5906C192.522 26.7023 194.764 26.0861 197.499 25.7395C199.873 25.4555 200.742 25.3159 200.742 24.0836V23.8477C200.742 22.1869 199.717 21.383 197.846 21.383C195.699 21.383 194.579 22.2832 194.46 24.1077H193.035C193.202 21.7392 194.74 20.1988 197.846 20.1988C200.486 20.1988 202.119 21.3108 202.119 23.9873V30.6593C202.119 31.391 202.4 31.6991 202.912 31.7231C203.094 31.7105 203.274 31.6782 203.449 31.6269H203.52V32.6955C203.209 32.8282 202.874 32.8922 202.537 32.8833C201.488 32.8833 200.833 32.3393 200.761 31.1551V30.8952H200.695C200.223 31.5802 199.587 32.1328 198.847 32.5015C198.107 32.8702 197.287 33.0429 196.464 33.0036C194.218 33.0036 192.522 31.8627 192.522 29.5906ZM200.766 28.2909V26.0861C199.773 26.5258 198.716 26.7974 197.637 26.89C195.604 27.1741 194.042 27.4822 194.042 29.5906C194.042 31.2947 195.3 31.8194 196.725 31.8194C199.365 31.8194 200.766 29.9709 200.766 28.2909Z" fill="#403260"/>
<path id="Vector_12" d="M206.35 30.8711H206.307V32.7341H204.883V15.7845H206.307V22.5817H206.35C206.754 21.8472 207.349 21.2388 208.069 20.8222C208.79 20.4056 209.609 20.1967 210.439 20.2181C213.335 20.2181 215.415 22.5624 215.415 26.6349C215.415 30.3993 213.516 33.0518 210.348 33.0518C209.549 33.093 208.754 32.9116 208.049 32.5272C207.344 32.1427 206.757 31.57 206.35 30.8711ZM213.948 26.6542C213.948 23.6022 212.666 21.4456 210.258 21.4456C207.594 21.4456 206.193 23.7418 206.193 26.6542C206.193 29.711 207.618 31.8194 210.282 31.8194C212.737 31.8194 213.943 29.5184 213.943 26.6542H213.948Z" fill="#403260"/>
<path id="Vector_13" d="M216.47 28.883H217.961C218.17 30.9433 219.571 31.7713 221.508 31.7713C223.521 31.7713 224.571 30.8085 224.571 29.4029C224.571 27.9972 223.825 27.6025 221.347 27.0345C218.868 26.4664 216.93 25.8743 216.93 23.5059C216.93 21.4697 218.659 20.1892 221.138 20.1892C224.011 20.1892 225.34 21.6334 225.62 23.814H224.196C224.034 22.2255 222.961 21.4071 221.161 21.4071C219.362 21.4071 218.402 22.3073 218.402 23.4434C218.402 24.8394 219.547 25.1715 221.859 25.7155C224.291 26.2354 226.043 26.8516 226.043 29.3884C226.043 31.5643 224.314 33.0325 221.513 33.0325C218.246 33.047 216.607 31.2899 216.47 28.883Z" fill="#403260"/>
<path id="Vector_14" d="M27.5799 11.6928L36.835 17.1228C37.1514 17.3113 37.4172 17.5758 37.609 17.893C37.1911 15.3032 36.5026 11.1536 36.3601 10.1572C36.2804 9.588 36.2438 9.01346 36.2509 8.43863H35.9612C32.3143 8.58304 28.5582 10.2583 26.559 11.2836L26.3833 11.3799C26.803 11.3702 27.2172 11.4785 27.5799 11.6928Z" fill="#69C783"/>
<path id="Vector_15" d="M16.0548 17.0987L25.3193 11.6928C25.6409 11.5058 26.0029 11.4016 26.3735 11.3895C23.9565 10.4556 20.0674 8.98261 19.1604 8.61675C18.6276 8.39585 18.1118 8.13519 17.6171 7.83691L17.4651 8.11612C15.7746 11.3895 15.333 15.5246 15.1953 17.8112C15.1953 17.8786 15.1953 17.9411 15.1953 18.0037C15.3943 17.6277 15.6917 17.3145 16.0548 17.0987Z" fill="#69C783"/>
<path id="Vector_16" d="M37.9462 29.9468C37.9458 30.3104 37.8595 30.6686 37.6945 30.9914C39.6985 29.3307 42.8895 26.659 43.654 26.0476C44.1031 25.6891 44.5794 25.3671 45.0786 25.0849C45.0311 25.003 44.9836 24.9164 44.9314 24.8346C42.9845 21.7056 39.6747 19.2457 37.8085 18.0037C37.7515 17.9652 37.6945 17.9267 37.6328 17.893C37.8598 18.2557 37.9801 18.6765 37.9795 19.1061L37.9462 29.9468Z" fill="#69C783"/>
<path id="Vector_17" d="M36.8159 31.9302L27.5419 37.3409C27.2342 37.5195 26.8893 37.6218 26.5352 37.6394C28.9569 38.5684 32.8128 40.0463 33.715 40.3881C34.2426 40.6065 34.7537 40.864 35.2441 41.1583L35.3818 40.9031C37.0818 37.6297 37.5282 33.4946 37.6564 31.2225C37.6564 31.1648 37.6564 31.107 37.6564 31.0444C37.463 31.4132 37.1719 31.72 36.8159 31.9302Z" fill="#69C783"/>
<path id="Vector_18" d="M25.2909 37.3361L16.0359 31.9061C15.7226 31.7213 15.4585 31.4619 15.2666 31.1503C15.6797 33.745 16.3635 37.8608 16.5012 38.8524C16.5832 39.4182 16.6229 39.9895 16.62 40.5613H16.9049C20.5565 40.4169 24.3127 38.7465 26.3118 37.7212L26.4495 37.649C26.0425 37.6533 25.6419 37.5451 25.2909 37.3361Z" fill="#69C783"/>
<path id="Vector_19" d="M14.9199 19.082C14.921 18.7033 15.0157 18.331 15.1953 17.9989C13.1914 19.6597 9.97187 22.3314 9.22634 22.9427C8.77621 23.2997 8.29998 23.6216 7.80176 23.9055L7.94896 24.1558C9.89589 27.2848 13.2009 29.7495 15.0719 30.9962L15.2048 31.0781C15.0034 30.7275 14.8984 30.3285 14.9009 29.9228L14.9199 19.082Z" fill="#69C783"/>
<path id="Vector_20" d="M26.3834 11.3847L26.5591 11.2884C28.5582 10.2631 32.3144 8.58787 35.9613 8.44345H36.251C36.2256 5.67522 37.2176 2.99653 39.0336 0.929059C34.6008 -0.446551 29.8411 -0.277072 25.5144 1.41044C23.2683 2.29137 19.4694 4.60683 17.627 7.8321C18.1217 8.13037 18.6375 8.39103 19.1702 8.61194C20.0772 8.97779 23.9663 10.4508 26.3834 11.3847Z" fill="#C2F18D"/>
<path id="Vector_21" d="M52.8758 23.7803C51.849 19.2048 49.3417 15.109 45.7529 12.1453C43.8535 10.6145 39.9454 8.40975 36.2557 8.43864C36.2487 9.01347 36.2852 9.58801 36.365 10.1572C36.5074 11.1199 37.196 15.308 37.6138 17.893L37.7943 18.0085C39.6937 19.2505 42.9797 21.7104 44.9172 24.8394C44.9694 24.9212 45.0169 25.0078 45.0644 25.0897C47.4176 23.6853 50.202 23.2185 52.8758 23.7803Z" fill="#C2F18D"/>
<path id="Vector_22" d="M37.6661 31.0107C37.6661 31.0829 37.6661 31.1551 37.6661 31.2225C37.5141 33.4946 37.0867 37.6297 35.3867 40.9176L35.249 41.1727C37.6196 42.5326 39.4069 44.7373 40.2635 47.3585C43.6608 44.1626 45.9043 39.9055 46.6362 35.2661C46.9971 32.8303 46.9306 28.3005 45.0691 25.0897C44.5699 25.372 44.0936 25.6939 43.6445 26.0525C42.8848 26.6638 39.67 29.3644 37.6661 31.0107Z" fill="#C2F18D"/>
<path id="Vector_23" d="M26.4876 37.6153C26.4279 37.6527 26.3661 37.6864 26.3024 37.7164C24.3033 38.7417 20.5471 40.4121 16.8955 40.5565H16.62C16.6385 43.3256 15.6398 46.0025 13.8184 48.0661C18.2478 49.4503 23.0067 49.2927 27.3376 47.6184C29.5932 46.7182 33.4301 44.3931 35.2488 41.1582C34.7568 40.8637 34.2442 40.6063 33.715 40.388C32.8128 40.0222 28.9094 38.5443 26.4876 37.6153Z" fill="#C2F18D"/>
<path id="Vector_24" d="M15.2572 31.1022L15.0815 30.9914C13.1821 29.7447 9.90083 27.28 7.95865 24.151L7.81144 23.9007C5.45656 25.3005 2.67272 25.7637 0 25.2004C1.02346 29.78 3.53128 33.8798 7.1229 36.8451C9.02234 38.3759 12.9257 40.5854 16.5963 40.5613C16.6032 39.9849 16.5667 39.4088 16.4871 38.838C16.3637 37.856 15.6704 33.6968 15.2572 31.1022Z" fill="#C2F18D"/>
<path id="Vector_25" d="M15.1954 17.9941C15.1954 17.9267 15.1954 17.8593 15.1954 17.7919C15.3189 15.5246 15.7605 11.3895 17.4605 8.11129L17.6125 7.83209C15.2526 6.46345 13.4776 4.25584 12.6312 1.63669C9.23082 4.82942 6.98384 9.08513 6.24907 13.7242C5.88818 16.1552 5.94991 20.685 7.80661 23.9007C8.30483 23.6168 8.78106 23.2949 9.23119 22.9379C9.97198 22.3314 13.1963 19.6549 15.1954 17.9941Z" fill="#C2F18D"/>
</g>
</g>
</g>
<defs>
<clipPath id="clip0_35_311">
<rect width="226" height="49" fill="white"/>
</clipPath>
</defs>
</svg>
