<svg width="154" height="41" viewBox="0 0 154 41" fill="none" xmlns="http://www.w3.org/2000/svg">
<g id="Frame 1171276664">
<path id="Vector" d="M148.419 8.73584L144.746 32.0535C144.697 32.3766 144.912 32.6811 145.232 32.737C145.263 32.7432 145.3 32.7432 145.331 32.7432H149.681C150 32.7432 150.271 32.5133 150.32 32.1964L153.993 8.87874C154.043 8.55566 153.827 8.25122 153.507 8.1953C153.477 8.18909 153.44 8.18909 153.409 8.18909H149.059C148.739 8.18287 148.462 8.41276 148.419 8.73584ZM143.774 15.5392H139.646C139.332 15.5329 139.055 15.769 139.006 16.0859L138.871 16.9433C138.871 16.9433 135.666 13.4329 129.993 15.8063C126.738 17.167 125.176 19.9691 124.511 22.0256C124.511 22.0256 122.401 28.276 127.175 31.7118C127.175 31.7118 131.605 35.0172 136.588 31.5068L136.502 32.0535C136.459 32.3207 136.601 32.5754 136.841 32.6873C136.921 32.7245 137.007 32.7432 137.093 32.7432H141.221C141.541 32.7494 141.812 32.5133 141.861 32.1964L144.371 16.2288C144.402 16.0548 144.346 15.8809 144.236 15.7442C144.113 15.6137 143.947 15.5392 143.774 15.5392ZM137.702 24.368C137.542 25.4863 136.982 26.499 136.133 27.2322C135.278 27.9653 134.189 28.3567 133.069 28.3443C132.632 28.3505 132.189 28.2822 131.771 28.1517C129.987 27.5801 128.972 25.8653 129.267 24.0014C129.427 22.883 129.987 21.8703 130.842 21.1371C131.697 20.404 132.786 20.0064 133.906 20.0188C134.343 20.0126 134.786 20.0809 135.204 20.2114C136.988 20.7892 137.997 22.504 137.702 24.368ZM115.664 24.8091C117.904 24.8091 120.069 24.0076 121.767 22.5475C123.465 21.0937 124.585 19.0682 124.936 16.8501C125.656 12.2338 122.057 8.20151 116.956 8.20151H108.737C108.417 8.20151 108.146 8.4314 108.097 8.74827L104.418 32.066C104.375 32.3331 104.516 32.5879 104.756 32.6997C104.836 32.737 104.922 32.7556 105.008 32.7556H109.358C109.678 32.7556 109.949 32.5257 109.998 32.2089L111.075 25.362C111.124 25.0452 111.395 24.8091 111.714 24.8153L115.664 24.8091ZM119.3 16.6389C119.03 18.3475 117.713 19.6025 115.197 19.6025H111.973L112.951 13.3894H116.113C118.722 13.3957 119.571 14.9365 119.3 16.6389Z" fill="#0070E0"/>
<path id="Vector_2" d="M99.4593 15.9369L94.4821 24.3619L91.9535 15.9991C91.8735 15.7257 91.6213 15.5393 91.3383 15.5393H86.8471C86.6071 15.5331 86.3979 15.7133 86.3672 15.9494C86.3549 16.0239 86.3672 16.1047 86.3918 16.1792L90.9199 30.2643L86.8225 36.8999C86.6809 37.1235 86.7425 37.4155 86.964 37.5584C86.9701 37.5647 86.9763 37.5709 86.9886 37.5709C87.0624 37.6144 87.1485 37.6392 87.2347 37.633H92.0765C92.3595 37.633 92.618 37.4839 92.7656 37.2416L105.409 16.2724C105.501 16.1233 105.507 15.9369 105.421 15.7816C105.335 15.6263 105.169 15.5331 104.996 15.5393H100.161C99.8654 15.5455 99.607 15.6946 99.4593 15.9369ZM84.3 15.5393H80.1718C79.8519 15.5393 79.5812 15.7692 79.5319 16.086L79.3966 16.9434C79.3966 16.9434 76.1912 13.4331 70.5126 15.8065C67.258 17.1671 65.6953 19.9692 65.0309 22.0257C65.0309 22.0257 62.9206 28.2761 67.6887 31.7119C67.6887 31.7119 72.1184 35.0173 77.1018 31.5069L77.0156 32.0537C76.9726 32.3208 77.1141 32.5756 77.354 32.6874C77.434 32.7247 77.5201 32.7433 77.6063 32.7433H81.7345C82.0482 32.7433 82.3251 32.5134 82.3743 32.1966L84.8845 16.2289C84.9275 15.9618 84.786 15.7008 84.5461 15.5952C84.4661 15.5579 84.38 15.5393 84.3 15.5393ZM78.2215 24.3681C78.0615 25.4802 77.5017 26.4992 76.6465 27.2261C75.7913 27.9592 74.7024 28.3569 73.5826 28.3445C73.1458 28.3507 72.709 28.2823 72.2845 28.1518C70.5065 27.5802 69.4852 25.8654 69.7805 24.0015C69.9405 22.8832 70.5065 21.8642 71.3616 21.1373C72.2168 20.4041 73.3119 20.0127 74.4317 20.0251C74.8685 20.0189 75.3114 20.0873 75.7298 20.2177C77.514 20.7893 78.523 22.5042 78.2215 24.3681ZM56.1838 24.8092C58.4171 24.8092 60.5766 24.0077 62.2808 22.5414C63.9788 21.0876 65.0986 19.0683 65.4431 16.844C66.1691 12.2277 62.5638 8.19543 57.4635 8.19543H49.244C48.9241 8.18922 48.6534 8.42531 48.6042 8.74218L44.9374 32.0537C44.8943 32.3208 45.0358 32.5818 45.2757 32.6874C45.3557 32.7247 45.4419 32.7433 45.528 32.7433H49.8777C50.1976 32.7433 50.4683 32.5134 50.5175 32.1966L51.5942 25.3497C51.6434 25.0329 51.9141 24.7968 52.234 24.803L56.1838 24.8092ZM59.826 16.639C59.5553 18.3476 58.2387 19.6026 55.7224 19.6026H52.4986L53.4768 13.3896H56.6391C59.2477 13.3958 60.0967 14.9366 59.826 16.639Z" fill="#003087"/>
<path id="Vector_3" d="M28.0677 9.39416C28.1661 4.24351 23.9579 0.291992 18.1747 0.291992H6.21457C5.63625 0.291992 5.15021 0.714482 5.05793 1.2923L0.265262 31.5376C0.185282 32.0595 0.535964 32.5503 1.05891 32.6373C1.10813 32.6435 1.15735 32.6497 1.20657 32.6497H8.29406L7.18664 39.6519C7.10666 40.1737 7.45734 40.6646 7.98029 40.7516C8.02951 40.7578 8.07873 40.764 8.12794 40.764H13.8988C14.1757 40.764 14.4279 40.6646 14.6371 40.4782C14.8463 40.298 14.8832 40.0433 14.9263 39.7637L16.6182 29.6923C16.6612 29.4127 16.8027 29.0523 17.0119 28.8722C17.2211 28.692 17.4057 28.5864 17.6887 28.5864H21.2201C26.8864 28.5864 31.6914 24.523 32.565 18.8629C33.1925 14.8555 31.4884 11.2022 28.0677 9.39416Z" fill="#001C64"/>
<path id="Vector_4" d="M9.81975 21.4909L8.06018 32.7987L6.95276 39.8878C6.87278 40.4097 7.22346 40.9006 7.74641 40.9875C7.79563 40.9938 7.84485 41 7.89407 41H14.0033C14.5817 41 15.0677 40.5775 15.16 39.9997L16.7719 29.6922C16.8642 29.1206 17.3502 28.6981 17.9285 28.6919H21.5276C27.1939 28.6919 31.9989 24.5167 32.8787 18.8628C33.5001 14.8491 31.5006 11.1958 28.0799 9.38782C28.0737 9.81652 28.0368 10.239 27.9691 10.6615C27.0893 16.3154 22.2844 20.4906 16.6242 20.4906H10.9948C10.4042 20.4968 9.91203 20.9193 9.81975 21.4909Z" fill="#0070E0"/>
<path id="Vector_5" d="M8.0534 32.7989H0.947459C0.42451 32.7989 0 32.3701 0 31.842C0 31.7923 0.00615261 31.7426 0.0123049 31.6929L4.80497 1.00031C4.89726 0.428703 5.38329 0.00621308 5.96161 0H18.1801C23.9633 0 28.1715 4.24975 28.0731 9.40039C26.6335 8.63618 24.9416 8.20126 23.0897 8.20126H12.8953C12.317 8.20126 11.8309 8.62375 11.7387 9.20157L9.81912 21.5035L8.0534 32.7989Z" fill="#003087"/>
</g>
</svg>
