<?xml version="1.0" encoding="UTF-8"?><svg xmlns="http://www.w3.org/2000/svg" xmlns:xlink="http://www.w3.org/1999/xlink" xmlns:serif="http://www.serif.com/" width="100%" height="100%" viewBox="0 0 408 408" version="1.2" xml:space="preserve" baseProfile="tiny-ps" fill-rule="evenodd" stroke-linejoin="round" stroke-miterlimit="2"><title>bimi2</title><rect x="0" y="0" width="408" height="408" fill="#07a7df"></rect><path d="M315.345,249.721c-0.511,0.357 -1.025,0.707 -1.547,1.048c20.28,25.66 32.388,58.042 32.388,93.218l-62.443,0c-0.002,-111.506 -174.894,-162.158 -238.888,0c-0,-41.599 16.861,-79.269 44.125,-106.534l0.127,0c24.437,-24.428 57.018,-40.421 93.353,-43.566l16.896,-0l82.359,-0.376l13.398,-63.486l-139.361,-0l-6.717,30.82c-0,0 27.306,-0.312 53.36,1.827c-56.81,11.629 -90.437,24.582 -128.147,63.078l33.627,-161.737c40.466,-0 70.328,0.095 102.535,0.167l100.873,-0c3.585,-0 7.326,0.421 11.152,1.223c12.003,2.505 22.144,8.923 29.42,18.021l0.124,-0c7.115,8.904 11.166,20.057 11.166,32.231c0,3.498 -0.418,7.329 -1.276,11.441l-17.052,81.796c-2.92,14.004 -10.959,26.451 -21.542,35.213c-2.492,2.062 -5.147,3.942 -7.93,5.616Z" fill-rule="nonzero"></path></svg>